<mxfile modified="2020-06-07T12:17:54.354Z" host="app.diagrams.net" agent="5.0 (Macintosh; Intel Mac OS X 10_14_0) AppleWebKit/537.36 (KHTML, like Gecko) Chrome/81.0.4044.138 Safari/537.36" etag="0-vtCi13ZpWHxPj3ROog" version="13.1.14" type="github">
  <diagram id="f106602c-feb2-e66a-4537-3a34d633f6aa" name="Page-1">
    <mxGraphModel dx="946" dy="565" grid="1" gridSize="10" guides="1" tooltips="1" connect="1" arrows="1" fold="1" page="1" pageScale="1" pageWidth="1169" pageHeight="827" background="#ffffff" math="0" shadow="0">
      <root>
        <mxCell id="0" />
        <mxCell id="1" parent="0" />
        <mxCell id="14" value="&lt;b&gt;Google &lt;/b&gt;Cloud Platform" style="fillColor=#F6F6F6;strokeColor=none;shadow=0;gradientColor=none;fontSize=14;align=left;spacing=10;fontColor=#717171;9E9E9E;verticalAlign=top;spacingTop=-4;fontStyle=0;spacingLeft=40;html=1;" parent="1" vertex="1">
          <mxGeometry x="650" y="100" width="390" height="590" as="geometry" />
        </mxCell>
        <mxCell id="15" value="" style="shape=mxgraph.gcp2.google_cloud_platform;fillColor=#F6F6F6;strokeColor=none;shadow=0;gradientColor=none;" parent="14" vertex="1">
          <mxGeometry width="23" height="20" relative="1" as="geometry">
            <mxPoint x="20" y="10" as="offset" />
          </mxGeometry>
        </mxCell>
        <mxCell id="2" value="Architecture: Dress4Win Case Study" style="fillColor=#4DA1F5;strokeColor=none;shadow=1;gradientColor=none;fontSize=14;align=left;spacingLeft=50;fontColor=#ffffff;html=1;" parent="1" vertex="1">
          <mxGeometry x="34.5" y="40" width="1100" height="40" as="geometry" />
        </mxCell>
        <mxCell id="16" value="" style="rounded=1;absoluteArcSize=1;arcSize=2;html=1;strokeColor=none;gradientColor=none;shadow=0;dashed=0;strokeColor=none;fontSize=12;fontColor=#9E9E9E;align=left;verticalAlign=top;spacing=10;spacingTop=-4;fillColor=#E0E0E0;" parent="1" vertex="1">
          <mxGeometry x="34.5" y="740" width="1100" height="30" as="geometry" />
        </mxCell>
        <mxCell id="391" value="On-Premise" style="rounded=1;absoluteArcSize=1;arcSize=2;html=1;strokeColor=none;gradientColor=none;shadow=0;dashed=0;strokeColor=none;fontSize=12;fontColor=#9E9E9E;align=left;verticalAlign=top;spacing=10;spacingTop=-4;fillColor=#EFEBE9;whiteSpace=wrap;" parent="1" vertex="1">
          <mxGeometry x="80" y="100" width="451" height="590" as="geometry" />
        </mxCell>
        <mxCell id="KhaCFDbxLPPyKXkI-G86-414" style="edgeStyle=orthogonalEdgeStyle;rounded=0;orthogonalLoop=1;jettySize=auto;html=1;entryX=0;entryY=0.5;entryDx=0;entryDy=0;strokeColor=#007FFF;startArrow=classic;startFill=1;" edge="1" parent="1" source="392" target="398">
          <mxGeometry relative="1" as="geometry" />
        </mxCell>
        <mxCell id="392" value="Local-Compute" style="strokeColor=#dddddd;fillColor=#ffffff;shadow=1;strokeWidth=1;rounded=1;absoluteArcSize=1;arcSize=2;labelPosition=center;verticalLabelPosition=middle;align=center;verticalAlign=bottom;spacingLeft=0;fontColor=#999999;fontSize=12;whiteSpace=wrap;spacingBottom=2;html=1;" parent="1" vertex="1">
          <mxGeometry x="105" y="220" width="70" height="100" as="geometry" />
        </mxCell>
        <mxCell id="393" value="" style="dashed=0;html=1;fillColor=#757575;strokeColor=none;shape=mxgraph.gcp2.compute_engine_icon;part=1;" parent="392" vertex="1">
          <mxGeometry x="0.5" width="50" height="44.5" relative="1" as="geometry">
            <mxPoint x="-25" y="12.75" as="offset" />
          </mxGeometry>
        </mxCell>
        <mxCell id="KhaCFDbxLPPyKXkI-G86-415" style="edgeStyle=orthogonalEdgeStyle;rounded=0;orthogonalLoop=1;jettySize=auto;html=1;strokeColor=#007FFF;startArrow=classic;startFill=1;" edge="1" parent="1" source="394" target="398">
          <mxGeometry relative="1" as="geometry" />
        </mxCell>
        <mxCell id="394" value="Local&lt;br&gt;Storage" style="strokeColor=#dddddd;fillColor=#ffffff;shadow=1;strokeWidth=1;rounded=1;absoluteArcSize=1;arcSize=2;labelPosition=center;verticalLabelPosition=middle;align=center;verticalAlign=bottom;spacingLeft=0;fontColor=#999999;fontSize=12;whiteSpace=wrap;spacingBottom=2;html=1;" parent="1" vertex="1">
          <mxGeometry x="105" y="400" width="70" height="100" as="geometry" />
        </mxCell>
        <mxCell id="395" value="" style="dashed=0;html=1;fillColor=#757575;strokeColor=none;shape=mxgraph.gcp2.storage;part=1;" parent="394" vertex="1">
          <mxGeometry x="0.5" width="50" height="40" relative="1" as="geometry">
            <mxPoint x="-25" y="15" as="offset" />
          </mxGeometry>
        </mxCell>
        <mxCell id="411" value="Google Cloud&lt;br&gt;Interconnect&lt;br&gt;&amp;amp; VPN&lt;br&gt;" style="edgeStyle=elbowEdgeStyle;rounded=0;elbow=vertical;html=1;startArrow=blockThin;startFill=1;endArrow=blockThin;endFill=1;jettySize=auto;orthogonalLoop=1;strokeWidth=2;fontSize=12;fontColor=#999999;dashed=0;strokeColor=#007FFF;labelBackgroundColor=#ffffff;endSize=4;startSize=4;verticalAlign=bottom;" parent="1" source="398" target="400" edge="1">
          <mxGeometry y="22" relative="1" as="geometry">
            <mxPoint as="offset" />
          </mxGeometry>
        </mxCell>
        <mxCell id="398" value="Gateway" style="strokeColor=#dddddd;fillColor=#ffffff;shadow=1;strokeWidth=1;rounded=1;absoluteArcSize=1;arcSize=2;labelPosition=center;verticalLabelPosition=middle;align=center;verticalAlign=bottom;spacingLeft=0;fontColor=#999999;fontSize=12;whiteSpace=wrap;spacingBottom=2;html=1;" parent="1" vertex="1">
          <mxGeometry x="440" y="320" width="70" height="85" as="geometry" />
        </mxCell>
        <mxCell id="399" value="" style="dashed=0;html=1;fillColor=#757575;strokeColor=none;shape=mxgraph.gcp2.gateway_icon;part=1;" parent="398" vertex="1">
          <mxGeometry x="0.5" width="50" height="22" relative="1" as="geometry">
            <mxPoint x="-25" y="24" as="offset" />
          </mxGeometry>
        </mxCell>
        <mxCell id="KhaCFDbxLPPyKXkI-G86-417" style="edgeStyle=orthogonalEdgeStyle;rounded=0;orthogonalLoop=1;jettySize=auto;html=1;exitX=0.5;exitY=1;exitDx=0;exitDy=0;entryX=0;entryY=0.5;entryDx=0;entryDy=0;startArrow=classic;startFill=1;strokeColor=#007FFF;" edge="1" parent="1" source="400" target="406">
          <mxGeometry relative="1" as="geometry" />
        </mxCell>
        <mxCell id="KhaCFDbxLPPyKXkI-G86-419" style="edgeStyle=orthogonalEdgeStyle;rounded=0;orthogonalLoop=1;jettySize=auto;html=1;entryX=0;entryY=0.5;entryDx=0;entryDy=0;startArrow=classic;startFill=1;strokeColor=#007FFF;" edge="1" parent="1" source="400" target="404">
          <mxGeometry relative="1" as="geometry">
            <Array as="points">
              <mxPoint x="710" y="460" />
            </Array>
          </mxGeometry>
        </mxCell>
        <mxCell id="400" value="" style="strokeColor=#dddddd;fillColor=#ffffff;shadow=1;strokeWidth=1;rounded=1;absoluteArcSize=1;arcSize=2;fontSize=17;fontColor=#000000;align=right;html=1;" parent="1" vertex="1">
          <mxGeometry x="660" y="340.5" width="100" height="44" as="geometry" />
        </mxCell>
        <mxCell id="401" value="Gateway" style="dashed=0;html=1;fillColor=#757575;strokeColor=none;shape=mxgraph.gcp2.gateway;part=1;labelPosition=right;verticalLabelPosition=middle;align=left;verticalAlign=middle;spacingLeft=5;fontColor=#000000;fontSize=12;" parent="400" vertex="1">
          <mxGeometry y="0.5" width="32" height="32" relative="1" as="geometry">
            <mxPoint x="5" y="-16" as="offset" />
          </mxGeometry>
        </mxCell>
        <mxCell id="404" value="" style="strokeColor=#dddddd;fillColor=#ffffff;shadow=1;strokeWidth=1;rounded=1;absoluteArcSize=1;arcSize=2;fontSize=17;fontColor=#000000;align=right;html=1;" parent="1" vertex="1">
          <mxGeometry x="885" y="430" width="110" height="60" as="geometry" />
        </mxCell>
        <mxCell id="405" value="Compute&#xa;Engine" style="dashed=0;connectable=0;html=1;fillColor=#5184F3;strokeColor=none;shape=mxgraph.gcp2.hexIcon;prIcon=compute_engine;part=1;labelPosition=right;verticalLabelPosition=middle;align=left;verticalAlign=middle;spacingLeft=5;fontColor=#999999;fontSize=12;" parent="404" vertex="1">
          <mxGeometry y="0.5" width="44" height="39" relative="1" as="geometry">
            <mxPoint x="5" y="-19.5" as="offset" />
          </mxGeometry>
        </mxCell>
        <mxCell id="406" value="" style="strokeColor=#dddddd;fillColor=#ffffff;shadow=1;strokeWidth=1;rounded=1;absoluteArcSize=1;arcSize=2;fontSize=17;fontColor=#000000;align=right;html=1;" parent="1" vertex="1">
          <mxGeometry x="884" y="500" width="110" height="60" as="geometry" />
        </mxCell>
        <mxCell id="407" value="Cloud&#xa;Storage" style="dashed=0;connectable=0;html=1;fillColor=#5184F3;strokeColor=none;shape=mxgraph.gcp2.hexIcon;prIcon=cloud_storage;part=1;labelPosition=right;verticalLabelPosition=middle;align=left;verticalAlign=middle;spacingLeft=5;fontColor=#999999;fontSize=12;" parent="406" vertex="1">
          <mxGeometry y="0.5" width="44" height="39" relative="1" as="geometry">
            <mxPoint x="5" y="-19.5" as="offset" />
          </mxGeometry>
        </mxCell>
        <mxCell id="KhaCFDbxLPPyKXkI-G86-422" style="edgeStyle=orthogonalEdgeStyle;rounded=0;orthogonalLoop=1;jettySize=auto;html=1;entryX=0.5;entryY=0;entryDx=0;entryDy=0;startArrow=none;startFill=0;strokeColor=#007FFF;" edge="1" parent="1" source="KhaCFDbxLPPyKXkI-G86-420" target="398">
          <mxGeometry relative="1" as="geometry" />
        </mxCell>
        <mxCell id="KhaCFDbxLPPyKXkI-G86-423" style="edgeStyle=orthogonalEdgeStyle;rounded=0;orthogonalLoop=1;jettySize=auto;html=1;startArrow=none;startFill=0;endArrow=classic;endFill=1;strokeColor=#007FFF;" edge="1" parent="1" source="KhaCFDbxLPPyKXkI-G86-420" target="400">
          <mxGeometry relative="1" as="geometry" />
        </mxCell>
        <mxCell id="KhaCFDbxLPPyKXkI-G86-420" value="" style="strokeColor=#dddddd;shadow=1;strokeWidth=1;rounded=1;absoluteArcSize=1;arcSize=2;" vertex="1" parent="1">
          <mxGeometry x="660" y="170" width="100" height="60" as="geometry" />
        </mxCell>
        <mxCell id="KhaCFDbxLPPyKXkI-G86-421" value="Cloud &#xa;DNS" style="dashed=0;connectable=0;html=1;fillColor=#5184F3;strokeColor=none;shape=mxgraph.gcp2.hexIcon;prIcon=cloud_dns;part=1;labelPosition=right;verticalLabelPosition=middle;align=left;verticalAlign=middle;spacingLeft=5;fontColor=#999999;fontSize=12;" vertex="1" parent="KhaCFDbxLPPyKXkI-G86-420">
          <mxGeometry y="0.5" width="44" height="39" relative="1" as="geometry">
            <mxPoint x="5" y="-19.5" as="offset" />
          </mxGeometry>
        </mxCell>
        <mxCell id="KhaCFDbxLPPyKXkI-G86-424" value="" style="strokeColor=#dddddd;shadow=1;strokeWidth=1;rounded=1;absoluteArcSize=1;arcSize=2;" vertex="1" parent="1">
          <mxGeometry x="845" y="130" width="150" height="60" as="geometry" />
        </mxCell>
        <mxCell id="KhaCFDbxLPPyKXkI-G86-425" value="&lt;font color=&quot;#000000&quot;&gt;RabbitMQ&amp;nbsp;&lt;/font&gt;&lt;br&gt;Cloud Pub/Sub" style="dashed=0;connectable=0;html=1;fillColor=#5184F3;strokeColor=none;shape=mxgraph.gcp2.hexIcon;prIcon=cloud_pubsub;part=1;labelPosition=right;verticalLabelPosition=middle;align=left;verticalAlign=middle;spacingLeft=5;fontColor=#999999;fontSize=12;" vertex="1" parent="KhaCFDbxLPPyKXkI-G86-424">
          <mxGeometry y="0.5" width="44" height="39" relative="1" as="geometry">
            <mxPoint x="5" y="-19.5" as="offset" />
          </mxGeometry>
        </mxCell>
        <mxCell id="KhaCFDbxLPPyKXkI-G86-426" value="" style="shape=mxgraph.gcp2.doubleRect;strokeColor=#dddddd;shadow=1;strokeWidth=1;" vertex="1" parent="1">
          <mxGeometry x="845" y="210" width="158" height="68" as="geometry" />
        </mxCell>
        <mxCell id="KhaCFDbxLPPyKXkI-G86-427" value="&lt;font color=&quot;#000000&quot;&gt;Hadoop/Spark&lt;/font&gt;&lt;br&gt;Cloud Dataproc" style="dashed=0;connectable=0;html=1;fillColor=#5184F3;strokeColor=none;shape=mxgraph.gcp2.hexIcon;prIcon=cloud_dataproc;part=1;labelPosition=right;verticalLabelPosition=middle;align=left;verticalAlign=middle;spacingLeft=5;fontColor=#999999;fontSize=12;" vertex="1" parent="KhaCFDbxLPPyKXkI-G86-426">
          <mxGeometry y="0.5" width="44" height="39" relative="1" as="geometry">
            <mxPoint x="5" y="-19.5" as="offset" />
          </mxGeometry>
        </mxCell>
        <mxCell id="KhaCFDbxLPPyKXkI-G86-428" value="" style="strokeColor=#dddddd;shadow=1;strokeWidth=1;rounded=1;absoluteArcSize=1;arcSize=2;" vertex="1" parent="1">
          <mxGeometry x="845" y="290" width="165" height="70" as="geometry" />
        </mxCell>
        <mxCell id="KhaCFDbxLPPyKXkI-G86-429" value="&lt;font color=&quot;#000000&quot;&gt;Misc. (Jenkins etc.)&lt;/font&gt;&lt;br&gt;Compute Engine&lt;hr&gt;&lt;font style=&quot;font-size: 11px&quot;&gt;Attribute Name&lt;/font&gt;" style="dashed=0;connectable=0;html=1;fillColor=#5184F3;strokeColor=none;shape=mxgraph.gcp2.compute_engine;part=1;labelPosition=right;verticalLabelPosition=middle;align=left;verticalAlign=top;spacingLeft=5;fontColor=#999999;fontSize=12;spacingTop=-8;" vertex="1" parent="KhaCFDbxLPPyKXkI-G86-428">
          <mxGeometry width="44" height="39" relative="1" as="geometry">
            <mxPoint x="5" y="7" as="offset" />
          </mxGeometry>
        </mxCell>
      </root>
    </mxGraphModel>
  </diagram>
</mxfile>
